<svg xmlns="http://www.w3.org/2000/svg" xmlns:xlink="http://www.w3.org/1999/xlink" width="500" zoomAndPan="magnify" viewBox="0 0 375 374.999991" height="500" preserveAspectRatio="xMidYMid meet" version="1.0"><defs><g/><clipPath id="id1"><path d="M 101.492188 211.730469 L 281.492188 211.730469 L 281.492188 222.230469 L 101.492188 222.230469 Z M 101.492188 211.730469 " clip-rule="nonzero"/></clipPath></defs><g clip-path="url(#id1)"><path fill="rgb(0%, 0%, 0%)" d="M 107.59375 216.105469 C 104.847656 216.707031 102.796875 217.574219 101.964844 218.519531 C 98.839844 222.058594 112.183594 223.007812 113.75 221.542969 C 110.773438 221.566406 109.203125 221.308594 108.261719 221.007812 C 137.40625 213.160156 233.675781 215.210938 281.492188 220.46875 C 275.617188 213.589844 148.0625 207.234375 107.59375 216.105469 Z M 107.59375 216.105469 " fill-opacity="1" fill-rule="nonzero"/></g><g fill="rgb(0%, 0%, 0%)" fill-opacity="1"><g transform="translate(86.905033, 201.892897)"><g><path d="M 0.503906 8.050781 C 1.257812 9.894531 2.515625 10.984375 4.359375 10.984375 C 11.65625 10.984375 23.5625 -4.359375 27.671875 -11.152344 C 29.351562 -10.398438 30.1875 -8.972656 30.355469 -7.210938 C 30.355469 -6.792969 30.273438 -6.039062 30.609375 -5.871094 C 31.277344 -5.871094 31.363281 -7.042969 31.277344 -7.378906 C 31.277344 -9.476562 30.609375 -11.738281 28.761719 -12.996094 C 32.035156 -18.617188 37.988281 -33.125 34.296875 -40.503906 C 32.789062 -43.523438 30.1875 -44.863281 27.085938 -44.863281 C 17.441406 -44.863281 3.269531 -31.867188 3.4375 -23.730469 C 3.4375 -21.300781 4.695312 -20.042969 5.449219 -20.042969 C 5.617188 -20.042969 5.785156 -20.210938 5.785156 -20.460938 C 5.871094 -25.242188 20.378906 -41.339844 27.839844 -41.339844 C 29.351562 -41.339844 30.523438 -40.753906 31.277344 -39.414062 C 34.632812 -33.542969 26.835938 -18.785156 23.898438 -13.835938 C 15.011719 -13.164062 -3.019531 -0.25 0.503906 8.050781 Z M 22.472656 -11.40625 C 20.964844 -8.21875 8.554688 7.296875 4.023438 7.296875 C 3.859375 7.296875 3.773438 7.296875 3.605469 7.210938 C -1.675781 5.617188 13.835938 -9.140625 22.472656 -11.40625 Z M 22.472656 -11.40625 "/></g></g></g><g fill="rgb(0%, 0%, 0%)" fill-opacity="1"><g transform="translate(117.844808, 201.892897)"><g><path d="M 16.015625 -6.539062 C 15.847656 -7.042969 15.933594 -7.882812 16.351562 -9.222656 C 16.6875 -11.238281 17.777344 -14.925781 19.453125 -16.269531 C 20.125 -16.6875 20.042969 -16.773438 19.539062 -17.359375 C 18.699219 -18.363281 17.777344 -18.785156 16.9375 -18.785156 C 16.605469 -18.785156 16.269531 -18.699219 15.847656 -18.53125 C 16.519531 -20.964844 16.9375 -23.648438 15.09375 -25.660156 C 14.589844 -26.164062 13.835938 -26.667969 12.996094 -26.667969 C 12.074219 -26.667969 11.070312 -26.164062 9.894531 -25.15625 C 4.863281 -21.046875 -4.527344 -4.191406 2.097656 -1.175781 C 2.597656 -0.921875 2.933594 -0.753906 3.4375 -0.753906 C 3.605469 -0.753906 3.773438 -0.839844 3.941406 -0.839844 C 6.207031 -1.84375 9.222656 -6.792969 11.738281 -10.902344 C 11.738281 -10.734375 11.738281 -10.648438 11.65625 -10.398438 C 11.320312 -8.132812 11.070312 -5.367188 12.746094 -3.773438 C 13.25 -3.269531 13.835938 -2.933594 14.589844 -2.933594 C 19.121094 -2.933594 25.910156 -14.003906 27.589844 -16.4375 C 27.335938 -17.359375 27.085938 -17.359375 26.414062 -17.359375 C 25.996094 -16.773438 18.699219 -6.289062 16.519531 -6.289062 C 16.351562 -6.289062 16.183594 -6.375 16.015625 -6.539062 Z M 12.578125 -20.796875 C 13.25 -21.382812 13.753906 -21.804688 14.171875 -21.804688 C 14.84375 -21.804688 15.011719 -20.460938 14.675781 -17.695312 C 13.921875 -17.105469 13.5 -16.269531 13.082031 -15.429688 C 9.980469 -11.152344 6.039062 -4.527344 4.78125 -4.527344 C 3.605469 -5.535156 9.308594 -17.273438 12.578125 -20.796875 Z M 12.578125 -20.796875 "/></g></g></g><g fill="rgb(0%, 0%, 0%)" fill-opacity="1"><g transform="translate(138.387478, 201.892897)"><g><path d="M 14.757812 -26.414062 C 14.507812 -26.75 14.089844 -27.085938 13.753906 -27.421875 C 14.925781 -29.351562 15.847656 -31.195312 16.4375 -32.789062 C 16.9375 -34.214844 16.351562 -37.988281 14.421875 -37.820312 C 10.902344 -37.566406 6.960938 -31.277344 11.152344 -27.085938 C 8.554688 -22.726562 5.617188 -17.105469 3.773438 -14.589844 C 3.691406 -14.421875 3.773438 -13.585938 4.359375 -13.585938 C 4.527344 -13.585938 4.78125 -13.667969 5.28125 -14.003906 C 7.210938 -16.4375 8.972656 -20.292969 12.578125 -25.578125 C 12.832031 -25.242188 13.082031 -24.90625 13.164062 -24.652344 C 15.09375 -20.964844 4.445312 -7.964844 4.613281 -1.59375 C 4.613281 0.335938 5.535156 3.4375 7.964844 3.4375 C 8.21875 3.4375 8.386719 3.355469 8.636719 3.269531 C 13.082031 1.089844 22.472656 -14.171875 23.648438 -15.765625 C 23.816406 -16.015625 23.648438 -16.4375 23.3125 -16.605469 C 23.144531 -16.6875 23.0625 -16.773438 22.894531 -16.773438 C 22.726562 -16.773438 22.640625 -16.6875 22.390625 -16.519531 C 20.460938 -13.921875 10.816406 0.921875 8.386719 0.503906 C 9.726562 -4.359375 14.84375 -13.082031 16.015625 -16.351562 C 17.273438 -19.453125 18.28125 -24.152344 14.757812 -26.414062 Z M 14.171875 -34.296875 C 14.589844 -34.296875 14.675781 -33.792969 14.171875 -32.453125 C 13.835938 -31.363281 13.25 -30.1875 12.664062 -29.265625 C 11.152344 -31.277344 13.417969 -34.296875 14.171875 -34.296875 Z M 14.171875 -34.296875 "/></g></g></g><g fill="rgb(0%, 0%, 0%)" fill-opacity="1"><g transform="translate(155.66009, 201.892897)"><g><path d="M 0.585938 -4.695312 C 0.839844 -2.011719 2.515625 0 5.28125 0 C 13.164062 0 23.144531 -19.289062 14.84375 -23.3125 C 14.421875 -23.5625 13.835938 -23.648438 13.25 -23.648438 C 10.984375 -23.648438 8.804688 -21.886719 7.464844 -20.125 C 6.207031 -20.125 5.617188 -19.539062 4.949219 -18.449219 C 2.683594 -15.011719 0.0820312 -8.890625 0.585938 -4.695312 Z M 6.121094 -9.558594 C 7.128906 -11.824219 8.804688 -15.429688 10.148438 -17.273438 C 10.480469 -17.609375 11.152344 -18.195312 10.902344 -18.617188 C 10.816406 -18.953125 10.316406 -19.289062 9.894531 -19.453125 C 10.816406 -20.964844 12.074219 -21.71875 13.082031 -21.71875 C 13.585938 -21.71875 13.921875 -21.46875 14.339844 -21.300781 C 19.453125 -17.695312 8.804688 -2.347656 5.367188 -2.347656 C 4.78125 -2.347656 4.445312 -2.683594 4.359375 -3.523438 C 4.191406 -5.28125 5.703125 -8.804688 6.121094 -9.558594 Z M 6.121094 -9.558594 "/></g></g></g><g fill="rgb(0%, 0%, 0%)" fill-opacity="1"><g transform="translate(173.184244, 201.892897)"><g><path d="M 19.289062 -35.21875 C 20.042969 -35.976562 18.28125 -38.070312 15.933594 -38.070312 C 14.339844 -38.070312 13.753906 -37.148438 12.914062 -35.890625 C 9.8125 -30.441406 -1.007812 -7.042969 -1.929688 1.007812 C -2.011719 2.433594 -1.59375 5.535156 0.335938 5.617188 C 1.675781 -4.445312 15.09375 -31.195312 19.289062 -35.21875 Z M 19.289062 -35.21875 "/></g></g></g><g fill="rgb(0%, 0%, 0%)" fill-opacity="1"><g transform="translate(181.82055, 201.892897)"><g/></g></g><g fill="rgb(0%, 0%, 0%)" fill-opacity="1"><g transform="translate(191.882263, 201.892897)"><g><path d="M 24.652344 -36.058594 C 25.242188 -37.234375 25.828125 -38.238281 26.582031 -39.328125 C 27.085938 -40 27.003906 -40.082031 26.164062 -40.167969 C 23.480469 -40.167969 22.726562 -39.160156 21.300781 -37.066406 L 20.546875 -35.554688 C 18.195312 -31.195312 14.589844 -24.234375 11.40625 -17.359375 L 10.734375 -18.28125 C 10.566406 -18.363281 10.480469 -18.363281 10.316406 -18.363281 C 9.558594 -18.363281 8.300781 -17.105469 8.050781 -16.4375 C 7.964844 -16.183594 8.554688 -15.09375 9.644531 -13.5 C 6.457031 -6.375 4.109375 0 4.277344 2.433594 C 4.527344 5.449219 7.296875 6.875 8.636719 6.875 C 9.140625 6.875 9.558594 6.625 9.476562 6.289062 C 9.390625 5.449219 8.300781 6.539062 8.21875 4.863281 C 8.050781 2.851562 10.316406 -3.523438 12.746094 -9.726562 C 16.773438 -5.367188 22.894531 -0.503906 29.015625 -0.503906 C 33.125 -0.503906 37.234375 -2.683594 40.839844 -8.554688 C 41.089844 -8.972656 40.921875 -9.558594 40.503906 -9.726562 C 40.417969 -9.8125 40.25 -9.894531 40.082031 -9.894531 C 39.832031 -9.894531 39.496094 -9.726562 39.328125 -9.476562 C 36.8125 -5.28125 33.792969 -3.605469 30.691406 -3.605469 C 25.410156 -3.605469 19.789062 -8.21875 15.429688 -12.832031 C 33.710938 -16.519531 55.179688 -39.160156 39.496094 -49.308594 C 36.644531 -51.152344 33.125 -51.90625 29.351562 -51.90625 C 12.410156 -51.90625 -9.308594 -35.472656 4.695312 -20.796875 C 4.949219 -20.546875 5.199219 -20.460938 5.449219 -20.460938 C 5.535156 -20.460938 5.703125 -20.460938 5.871094 -20.628906 C 6.207031 -20.964844 5.953125 -21.382812 5.535156 -21.71875 C -6.289062 -33.878906 16.773438 -47.546875 30.609375 -47.546875 C 35.050781 -47.546875 38.574219 -46.121094 39.664062 -42.765625 C 42.683594 -33.710938 29.015625 -19.957031 15.511719 -16.519531 C 18.28125 -23.144531 21.214844 -29.769531 24.652344 -36.058594 Z M 24.652344 -36.058594 "/></g></g></g><g fill="rgb(0%, 0%, 0%)" fill-opacity="1"><g transform="translate(230.45218, 201.892897)"><g><path d="M 16.855469 -38.824219 C 16.519531 -38.824219 16.351562 -38.660156 15.933594 -38.15625 C 13.753906 -35.136719 10.902344 -29.097656 11.320312 -25.242188 C 11.40625 -24.738281 11.574219 -24.488281 11.65625 -24.488281 C 11.738281 -24.488281 11.824219 -24.652344 12.074219 -24.988281 C 14.507812 -28.511719 16.773438 -32.117188 19.289062 -35.554688 C 19.453125 -35.890625 19.957031 -36.308594 19.707031 -36.8125 C 19.371094 -37.820312 18.113281 -38.824219 16.855469 -38.824219 Z M 16.855469 -17.105469 C 16.855469 -17.105469 16.773438 -17.105469 16.6875 -16.9375 C 13.25 -12.242188 9.726562 -7.464844 5.117188 -3.859375 C 4.527344 -3.523438 4.277344 -3.355469 3.941406 -3.355469 C 3.859375 -3.355469 3.859375 -3.355469 3.773438 -3.4375 C 2.683594 -4.023438 5.117188 -8.804688 5.449219 -9.558594 C 7.128906 -12.914062 9.140625 -16.519531 11.152344 -19.539062 L 11.238281 -19.707031 C 12.160156 -21.382812 10.398438 -22.304688 9.140625 -22.894531 C 8.636719 -23.0625 8.300781 -23.230469 8.050781 -23.230469 C 6.625 -23.230469 0.753906 -9.222656 -0.0820312 -7.210938 C -1.175781 -4.277344 0.921875 -1.425781 3.269531 -1.425781 C 6.625 -1.425781 13.417969 -9.980469 15.347656 -12.664062 C 16.015625 -13.835938 16.855469 -15.011719 17.695312 -16.183594 C 17.527344 -16.773438 17.273438 -17.105469 16.855469 -17.105469 Z M 16.855469 -17.105469 "/></g></g></g><g fill="rgb(0%, 0%, 0%)" fill-opacity="1"><g transform="translate(241.436219, 201.892897)"><g><path d="M 5.449219 0.167969 C 11.40625 0.167969 17.191406 -7.882812 20.292969 -12.160156 C 21.382812 -13.753906 22.222656 -15.011719 22.726562 -15.679688 C 22.726562 -16.351562 22.222656 -16.605469 21.886719 -16.605469 C 21.804688 -16.605469 21.71875 -16.605469 21.71875 -16.519531 C 18.363281 -11.90625 11.40625 -2.597656 5.28125 -2.597656 C 2.851562 -2.851562 3.355469 -5.871094 4.78125 -9.308594 C 5.28125 -8.636719 6.207031 -8.300781 7.210938 -8.300781 C 10.0625 -8.386719 13.5 -12.664062 14.589844 -15.261719 L 14.589844 -15.429688 C 14.84375 -15.847656 14.925781 -16.351562 15.09375 -16.9375 C 15.597656 -19.621094 13.667969 -21.96875 11.070312 -21.96875 C 10.148438 -21.96875 9.140625 -21.71875 8.132812 -21.046875 C 2.933594 -17.609375 -3.355469 -7.546875 1.59375 -1.59375 C 2.515625 -0.335938 3.859375 0.167969 5.449219 0.167969 Z M 12.328125 -18.617188 C 12.664062 -18.617188 12.914062 -18.53125 13.082031 -18.28125 C 13.25 -17.863281 13.164062 -17.359375 12.996094 -16.6875 C 11.738281 -13.667969 7.964844 -10.230469 6.289062 -10.230469 C 5.871094 -10.230469 5.617188 -10.398438 5.449219 -10.816406 C 7.546875 -14.757812 10.734375 -18.617188 12.328125 -18.617188 Z M 12.328125 -18.617188 "/></g></g></g><g fill="rgb(0%, 0%, 0%)" fill-opacity="1"><g transform="translate(257.954208, 201.892897)"><g><path d="M 14.757812 -26.414062 C 14.507812 -26.75 14.089844 -27.085938 13.753906 -27.421875 C 14.925781 -29.351562 15.847656 -31.195312 16.4375 -32.789062 C 16.9375 -34.214844 16.351562 -37.988281 14.421875 -37.820312 C 10.902344 -37.566406 6.960938 -31.277344 11.152344 -27.085938 C 8.554688 -22.726562 5.617188 -17.105469 3.773438 -14.589844 C 3.691406 -14.421875 3.773438 -13.585938 4.359375 -13.585938 C 4.527344 -13.585938 4.78125 -13.667969 5.28125 -14.003906 C 7.210938 -16.4375 8.972656 -20.292969 12.578125 -25.578125 C 12.832031 -25.242188 13.082031 -24.90625 13.164062 -24.652344 C 15.09375 -20.964844 4.445312 -7.964844 4.613281 -1.59375 C 4.613281 0.335938 5.535156 3.4375 7.964844 3.4375 C 8.21875 3.4375 8.386719 3.355469 8.636719 3.269531 C 13.082031 1.089844 22.472656 -14.171875 23.648438 -15.765625 C 23.816406 -16.015625 23.648438 -16.4375 23.3125 -16.605469 C 23.144531 -16.6875 23.0625 -16.773438 22.894531 -16.773438 C 22.726562 -16.773438 22.640625 -16.6875 22.390625 -16.519531 C 20.460938 -13.921875 10.816406 0.921875 8.386719 0.503906 C 9.726562 -4.359375 14.84375 -13.082031 16.015625 -16.351562 C 17.273438 -19.453125 18.28125 -24.152344 14.757812 -26.414062 Z M 14.171875 -34.296875 C 14.589844 -34.296875 14.675781 -33.792969 14.171875 -32.453125 C 13.835938 -31.363281 13.25 -30.1875 12.664062 -29.265625 C 11.152344 -31.277344 13.417969 -34.296875 14.171875 -34.296875 Z M 14.171875 -34.296875 "/></g></g></g><g fill="rgb(0%, 0%, 0%)" fill-opacity="1"><g transform="translate(275.22682, 201.892897)"><g><path d="M 16.015625 -6.539062 C 15.847656 -7.042969 15.933594 -7.882812 16.351562 -9.222656 C 16.6875 -11.238281 17.777344 -14.925781 19.453125 -16.269531 C 20.125 -16.6875 20.042969 -16.773438 19.539062 -17.359375 C 18.699219 -18.363281 17.777344 -18.785156 16.9375 -18.785156 C 16.605469 -18.785156 16.269531 -18.699219 15.847656 -18.53125 C 16.519531 -20.964844 16.9375 -23.648438 15.09375 -25.660156 C 14.589844 -26.164062 13.835938 -26.667969 12.996094 -26.667969 C 12.074219 -26.667969 11.070312 -26.164062 9.894531 -25.15625 C 4.863281 -21.046875 -4.527344 -4.191406 2.097656 -1.175781 C 2.597656 -0.921875 2.933594 -0.753906 3.4375 -0.753906 C 3.605469 -0.753906 3.773438 -0.839844 3.941406 -0.839844 C 6.207031 -1.84375 9.222656 -6.792969 11.738281 -10.902344 C 11.738281 -10.734375 11.738281 -10.648438 11.65625 -10.398438 C 11.320312 -8.132812 11.070312 -5.367188 12.746094 -3.773438 C 13.25 -3.269531 13.835938 -2.933594 14.589844 -2.933594 C 19.121094 -2.933594 25.910156 -14.003906 27.589844 -16.4375 C 27.335938 -17.359375 27.085938 -17.359375 26.414062 -17.359375 C 25.996094 -16.773438 18.699219 -6.289062 16.519531 -6.289062 C 16.351562 -6.289062 16.183594 -6.375 16.015625 -6.539062 Z M 12.578125 -20.796875 C 13.25 -21.382812 13.753906 -21.804688 14.171875 -21.804688 C 14.84375 -21.804688 15.011719 -20.460938 14.675781 -17.695312 C 13.921875 -17.105469 13.5 -16.269531 13.082031 -15.429688 C 9.980469 -11.152344 6.039062 -4.527344 4.78125 -4.527344 C 3.605469 -5.535156 9.308594 -17.273438 12.578125 -20.796875 Z M 12.578125 -20.796875 "/></g></g></g><g fill="rgb(0%, 0%, 0%)" fill-opacity="1"><g transform="translate(124.063392, 234.65561)"><g><path d="M 9.953125 -6.78125 L 8.1875 -0.375 L 6.640625 -0.3125 L 5.046875 -4.515625 L 3.828125 -0.171875 L 2.265625 -0.109375 L -0.09375 -6.3125 L 1.40625 -6.375 L 3.03125 -2.015625 L 4.3125 -6.515625 L 5.671875 -6.578125 L 7.3125 -2.1875 L 8.5625 -6.703125 Z M 9.953125 -6.78125 "/></g></g></g><g fill="rgb(0%, 0%, 0%)" fill-opacity="1"><g transform="translate(141.678724, 233.893888)"><g><path d="M 5.578125 -1.359375 L 5.625 -0.1875 L 0.75 -0.03125 L 0.53125 -6.328125 L 5.296875 -6.484375 L 5.34375 -5.3125 L 2.03125 -5.203125 L 2.078125 -3.84375 L 5 -3.9375 L 5.03125 -2.796875 L 2.109375 -2.703125 L 2.15625 -1.25 Z M 5.578125 -1.359375 "/></g></g></g><g fill="rgb(0%, 0%, 0%)" fill-opacity="1"><g transform="translate(154.880113, 233.479279)"><g><path d="M 5.296875 -3.40625 C 5.648438 -3.300781 5.9375 -3.113281 6.15625 -2.84375 C 6.375 -2.582031 6.484375 -2.257812 6.484375 -1.875 C 6.503906 -1.320312 6.300781 -0.890625 5.875 -0.578125 C 5.445312 -0.273438 4.820312 -0.113281 4 -0.09375 L 0.75 -0.015625 L 0.609375 -6.3125 L 3.6875 -6.390625 C 4.457031 -6.398438 5.046875 -6.265625 5.453125 -5.984375 C 5.867188 -5.703125 6.082031 -5.304688 6.09375 -4.796875 C 6.101562 -4.492188 6.035156 -4.222656 5.890625 -3.984375 C 5.753906 -3.742188 5.554688 -3.550781 5.296875 -3.40625 Z M 2.078125 -5.25 L 2.109375 -3.765625 L 3.546875 -3.796875 C 3.910156 -3.804688 4.1875 -3.875 4.375 -4 C 4.5625 -4.132812 4.648438 -4.328125 4.640625 -4.578125 C 4.640625 -4.816406 4.539062 -4.992188 4.34375 -5.109375 C 4.15625 -5.234375 3.878906 -5.289062 3.515625 -5.28125 Z M 3.859375 -1.1875 C 4.242188 -1.195312 4.535156 -1.265625 4.734375 -1.390625 C 4.929688 -1.523438 5.023438 -1.726562 5.015625 -2 C 5.003906 -2.519531 4.609375 -2.769531 3.828125 -2.75 L 2.140625 -2.703125 L 2.171875 -1.140625 Z M 3.859375 -1.1875 "/></g></g></g><g fill="rgb(0%, 0%, 0%)" fill-opacity="1"><g transform="translate(178.655683, 233.087555)"><g><path d="M 2.8125 0.09375 C 2.3125 0.09375 1.828125 0.03125 1.359375 -0.09375 C 0.898438 -0.226562 0.53125 -0.40625 0.25 -0.625 L 0.734375 -1.71875 C 1.015625 -1.519531 1.335938 -1.363281 1.703125 -1.25 C 2.078125 -1.132812 2.453125 -1.078125 2.828125 -1.078125 C 3.242188 -1.078125 3.550781 -1.140625 3.75 -1.265625 C 3.945312 -1.390625 4.039062 -1.550781 4.03125 -1.75 C 4.03125 -1.90625 3.96875 -2.03125 3.84375 -2.125 C 3.726562 -2.226562 3.578125 -2.304688 3.390625 -2.359375 C 3.210938 -2.421875 2.96875 -2.488281 2.65625 -2.5625 C 2.175781 -2.675781 1.78125 -2.785156 1.46875 -2.890625 C 1.164062 -3.003906 0.90625 -3.1875 0.6875 -3.4375 C 0.46875 -3.6875 0.359375 -4.023438 0.359375 -4.453125 C 0.347656 -4.816406 0.441406 -5.144531 0.640625 -5.4375 C 0.835938 -5.738281 1.132812 -5.976562 1.53125 -6.15625 C 1.9375 -6.332031 2.425781 -6.421875 3 -6.421875 C 3.40625 -6.421875 3.796875 -6.375 4.171875 -6.28125 C 4.554688 -6.1875 4.894531 -6.050781 5.1875 -5.875 L 4.75 -4.765625 C 4.15625 -5.085938 3.570312 -5.25 3 -5.25 C 2.582031 -5.25 2.28125 -5.179688 2.09375 -5.046875 C 1.90625 -4.921875 1.8125 -4.75 1.8125 -4.53125 C 1.8125 -4.3125 1.921875 -4.148438 2.140625 -4.046875 C 2.367188 -3.941406 2.710938 -3.835938 3.171875 -3.734375 C 3.660156 -3.628906 4.054688 -3.519531 4.359375 -3.40625 C 4.660156 -3.289062 4.921875 -3.109375 5.140625 -2.859375 C 5.359375 -2.617188 5.46875 -2.289062 5.46875 -1.875 C 5.476562 -1.519531 5.382812 -1.1875 5.1875 -0.875 C 4.988281 -0.570312 4.6875 -0.332031 4.28125 -0.15625 C 3.882812 0.0078125 3.394531 0.09375 2.8125 0.09375 Z M 2.8125 0.09375 "/></g></g></g><g fill="rgb(0%, 0%, 0%)" fill-opacity="1"><g transform="translate(191.568396, 233.063499)"><g><path d="M 2.078125 -5.09375 L 0.0625 -5.109375 L 0.0625 -6.296875 L 5.5625 -6.265625 L 5.5625 -5.078125 L 3.546875 -5.09375 L 3.515625 0.015625 L 2.046875 0.015625 Z M 2.078125 -5.09375 "/></g></g></g><g fill="rgb(0%, 0%, 0%)" fill-opacity="1"><g transform="translate(204.299183, 233.168001)"><g><path d="M 3.546875 0.171875 C 2.648438 0.148438 1.953125 -0.109375 1.453125 -0.609375 C 0.953125 -1.117188 0.710938 -1.832031 0.734375 -2.75 L 0.796875 -6.28125 L 2.265625 -6.265625 L 2.203125 -2.796875 C 2.179688 -1.671875 2.640625 -1.097656 3.578125 -1.078125 C 4.023438 -1.078125 4.367188 -1.207031 4.609375 -1.46875 C 4.859375 -1.738281 4.988281 -2.164062 5 -2.75 L 5.0625 -6.21875 L 6.515625 -6.1875 L 6.453125 -2.65625 C 6.429688 -1.738281 6.164062 -1.035156 5.65625 -0.546875 C 5.144531 -0.0546875 4.441406 0.179688 3.546875 0.171875 Z M 3.546875 0.171875 "/></g></g></g><g fill="rgb(0%, 0%, 0%)" fill-opacity="1"><g transform="translate(218.555661, 233.440473)"><g><path d="M 0.921875 -6.28125 L 3.78125 -6.203125 C 4.46875 -6.179688 5.066406 -6.03125 5.578125 -5.75 C 6.097656 -5.476562 6.492188 -5.097656 6.765625 -4.609375 C 7.046875 -4.128906 7.179688 -3.578125 7.171875 -2.953125 C 7.148438 -2.316406 6.984375 -1.765625 6.671875 -1.296875 C 6.367188 -0.835938 5.953125 -0.484375 5.421875 -0.234375 C 4.898438 0.00390625 4.296875 0.113281 3.609375 0.09375 L 0.75 0.015625 Z M 3.5625 -1.109375 C 4.195312 -1.085938 4.707031 -1.242188 5.09375 -1.578125 C 5.476562 -1.921875 5.679688 -2.394531 5.703125 -3 C 5.710938 -3.59375 5.535156 -4.070312 5.171875 -4.4375 C 4.804688 -4.800781 4.304688 -4.992188 3.671875 -5.015625 L 2.34375 -5.046875 L 2.234375 -1.140625 Z M 3.5625 -1.109375 "/></g></g></g><g fill="rgb(0%, 0%, 0%)" fill-opacity="1"><g transform="translate(233.154395, 233.893195)"><g><path d="M 0.984375 -6.265625 L 2.4375 -6.21875 L 2.203125 0.078125 L 0.75 0.03125 Z M 0.984375 -6.265625 "/></g></g></g><g fill="rgb(0%, 0%, 0%)" fill-opacity="1"><g transform="translate(243.269899, 234.298506)"><g><path d="M 3.796875 0.296875 C 3.140625 0.265625 2.550781 0.0976562 2.03125 -0.203125 C 1.519531 -0.515625 1.128906 -0.925781 0.859375 -1.4375 C 0.585938 -1.945312 0.46875 -2.515625 0.5 -3.140625 C 0.519531 -3.753906 0.691406 -4.300781 1.015625 -4.78125 C 1.335938 -5.257812 1.769531 -5.625 2.3125 -5.875 C 2.851562 -6.132812 3.453125 -6.25 4.109375 -6.21875 C 4.765625 -6.1875 5.34375 -6.019531 5.84375 -5.71875 C 6.351562 -5.414062 6.742188 -5.007812 7.015625 -4.5 C 7.285156 -3.988281 7.410156 -3.425781 7.390625 -2.8125 C 7.359375 -2.1875 7.179688 -1.632812 6.859375 -1.15625 C 6.535156 -0.675781 6.109375 -0.304688 5.578125 -0.046875 C 5.046875 0.210938 4.453125 0.328125 3.796875 0.296875 Z M 3.84375 -0.953125 C 4.21875 -0.941406 4.554688 -1.007812 4.859375 -1.15625 C 5.171875 -1.3125 5.421875 -1.535156 5.609375 -1.828125 C 5.796875 -2.128906 5.898438 -2.476562 5.921875 -2.875 C 5.929688 -3.257812 5.859375 -3.609375 5.703125 -3.921875 C 5.546875 -4.242188 5.320312 -4.5 5.03125 -4.6875 C 4.75 -4.875 4.421875 -4.972656 4.046875 -4.984375 C 3.671875 -5.003906 3.328125 -4.9375 3.015625 -4.78125 C 2.710938 -4.625 2.46875 -4.394531 2.28125 -4.09375 C 2.09375 -3.789062 1.992188 -3.445312 1.984375 -3.0625 C 1.960938 -2.664062 2.03125 -2.3125 2.1875 -2 C 2.34375 -1.6875 2.5625 -1.4375 2.84375 -1.25 C 3.132812 -1.070312 3.46875 -0.972656 3.84375 -0.953125 Z M 3.84375 -0.953125 "/></g></g></g></svg>