<svg xmlns="http://www.w3.org/2000/svg" xmlns:xlink="http://www.w3.org/1999/xlink" width="500" zoomAndPan="magnify" viewBox="0 0 375 374.999991" height="500" preserveAspectRatio="xMidYMid meet" version="1.0"><defs><g/></defs><g fill="rgb(85.099792%, 85.099792%, 85.099792%)" fill-opacity="1"><g transform="translate(168.339841, 208.499986)"><g><path d="M 0.839844 -4.78125 C 1.929688 -1.929688 4.613281 0 7.714844 0 C 19.203125 0 27.671875 -22.894531 25.242188 -31.613281 C 24.152344 -35.722656 21.804688 -37.566406 18.953125 -37.566406 C 17.527344 -37.566406 15.933594 -37.066406 14.507812 -36.144531 C 6.207031 -31.195312 -3.019531 -14.925781 0.839844 -4.78125 Z M 19.289062 -34.046875 C 28.007812 -33.878906 15.347656 -2.933594 6.625 -2.933594 C 6.289062 -2.933594 5.871094 -3.019531 5.535156 -3.101562 C -2.433594 -6.289062 13.082031 -34.128906 19.289062 -34.046875 Z M 19.289062 -34.046875 "/></g></g></g><g fill="rgb(85.099792%, 85.099792%, 85.099792%)" fill-opacity="1"><g transform="translate(192.571811, 208.499986)"><g><path d="M 1.007812 0 C 1.257812 0 1.59375 -0.25 1.761719 -0.921875 C 4.445312 -10.902344 15.261719 -29.351562 21.046875 -38.40625 C 21.300781 -38.660156 18.785156 -40.671875 17.359375 -40.671875 C 17.105469 -40.671875 16.6875 -40.585938 16.519531 -40.335938 C 14.589844 -38.742188 10.480469 -36.226562 7.882812 -36.226562 C 7.210938 -36.226562 6.457031 -35.808594 6.707031 -35.21875 C 7.210938 -34.046875 8.386719 -33.460938 9.894531 -33.460938 C 10.816406 -33.460938 11.738281 -33.710938 12.746094 -34.046875 C 8.132812 -25.828125 3.605469 -15.933594 0.753906 -7.378906 C -0.921875 -2.347656 0.0820312 0 1.007812 0 Z M 1.007812 0 "/></g></g></g></svg>