<svg xmlns="http://www.w3.org/2000/svg" xmlns:xlink="http://www.w3.org/1999/xlink" width="500" zoomAndPan="magnify" viewBox="0 0 375 374.999991" height="500" preserveAspectRatio="xMidYMid meet" version="1.0"><defs><g/></defs><g fill="rgb(85.099792%, 85.099792%, 85.099792%)" fill-opacity="1"><g transform="translate(163.265619, 208.499986)"><g><path d="M 0.839844 -4.78125 C 1.929688 -1.929688 4.613281 0 7.714844 0 C 19.203125 0 27.671875 -22.894531 25.242188 -31.613281 C 24.152344 -35.722656 21.804688 -37.566406 18.953125 -37.566406 C 17.527344 -37.566406 15.933594 -37.066406 14.507812 -36.144531 C 6.207031 -31.195312 -3.019531 -14.925781 0.839844 -4.78125 Z M 19.289062 -34.046875 C 28.007812 -33.878906 15.347656 -2.933594 6.625 -2.933594 C 6.289062 -2.933594 5.871094 -3.019531 5.535156 -3.101562 C -2.433594 -6.289062 13.082031 -34.128906 19.289062 -34.046875 Z M 19.289062 -34.046875 "/></g></g></g><g fill="rgb(85.099792%, 85.099792%, 85.099792%)" fill-opacity="1"><g transform="translate(187.497589, 208.499986)"><g><path d="M 28.007812 -37.988281 C 26.414062 -40 24.234375 -40.753906 21.96875 -40.753906 C 17.359375 -40.753906 12.160156 -37.484375 9.558594 -33.878906 C 7.128906 -30.441406 8.132812 -28.007812 8.890625 -28.007812 C 9.054688 -28.007812 9.140625 -28.175781 9.222656 -28.34375 C 13.082031 -33.792969 18.699219 -36.5625 22.390625 -36.5625 C 24.738281 -36.5625 26.164062 -35.304688 25.746094 -32.957031 C 23.984375 -24.152344 4.023438 -7.128906 -0.0820312 -5.367188 C -1.175781 -4.863281 -2.765625 -4.277344 -2.851562 -2.683594 C -3.019531 -1.175781 -1.257812 0 -0.585938 0 C -0.503906 0 -0.335938 0 -0.25 -0.0820312 C 2.851562 -1.929688 12.328125 -3.523438 17.695312 -3.523438 C 19.539062 -3.523438 20.964844 -3.355469 21.300781 -2.851562 C 21.382812 -2.765625 22.390625 -7.378906 14.925781 -7.378906 C 12.832031 -7.378906 9.980469 -7.042969 6.207031 -6.039062 C 14.925781 -12.074219 26.414062 -22.136719 28.929688 -31.699219 C 29.6875 -34.382812 29.265625 -36.5625 28.007812 -37.988281 Z M 28.007812 -37.988281 "/></g></g></g></svg>