<svg xmlns="http://www.w3.org/2000/svg" xmlns:xlink="http://www.w3.org/1999/xlink" width="500" zoomAndPan="magnify" viewBox="0 0 375 374.999991" height="500" preserveAspectRatio="xMidYMid meet" version="1.0"><defs><g/></defs><g fill="rgb(85.099792%, 85.099792%, 85.099792%)" fill-opacity="1"><g transform="translate(162.808588, 208.499986)"><g><path d="M 0.839844 -4.78125 C 1.929688 -1.929688 4.613281 0 7.714844 0 C 19.203125 0 27.671875 -22.894531 25.242188 -31.613281 C 24.152344 -35.722656 21.804688 -37.566406 18.953125 -37.566406 C 17.527344 -37.566406 15.933594 -37.066406 14.507812 -36.144531 C 6.207031 -31.195312 -3.019531 -14.925781 0.839844 -4.78125 Z M 19.289062 -34.046875 C 28.007812 -33.878906 15.347656 -2.933594 6.625 -2.933594 C 6.289062 -2.933594 5.871094 -3.019531 5.535156 -3.101562 C -2.433594 -6.289062 13.082031 -34.128906 19.289062 -34.046875 Z M 19.289062 -34.046875 "/></g></g></g><g fill="rgb(85.099792%, 85.099792%, 85.099792%)" fill-opacity="1"><g transform="translate(187.040558, 208.499986)"><g><path d="M 20.042969 -40.167969 C 15.261719 -40.167969 9.308594 -36.898438 7.632812 -32.957031 C 7.210938 -31.699219 7.378906 -30.273438 7.714844 -30.273438 C 7.882812 -30.273438 7.964844 -30.355469 8.050781 -30.441406 C 10.648438 -33.207031 16.855469 -36.644531 20.628906 -36.644531 C 21.96875 -36.644531 22.976562 -36.226562 23.5625 -35.21875 C 25.996094 -30.523438 11.90625 -22.976562 8.636719 -21.804688 C 7.464844 -21.300781 8.050781 -17.527344 9.308594 -17.527344 C 9.390625 -17.527344 9.476562 -17.527344 9.726562 -17.609375 C 11.152344 -18.28125 12.832031 -18.699219 14.421875 -18.699219 C 15.09375 -18.699219 15.847656 -18.53125 16.519531 -18.363281 C 26.332031 -14.421875 9.894531 -3.355469 1.84375 -3.355469 C -0.167969 -3.355469 -1.675781 -4.023438 -2.097656 -5.617188 C -2.097656 -6.039062 -2.347656 -6.121094 -2.515625 -6.121094 C -2.851562 -6.121094 -3.355469 -5.449219 -3.269531 -4.613281 L -3.019531 -3.859375 C -1.929688 -1.089844 0.839844 0 4.023438 0 C 11.238281 0 21.214844 -5.617188 22.136719 -12.160156 C 22.894531 -17.527344 19.035156 -21.132812 14.089844 -21.46875 C 18.449219 -23.394531 26.5 -28.59375 26.5 -34.046875 C 26.5 -37.988281 23.898438 -40.167969 20.042969 -40.167969 Z M 20.042969 -40.167969 "/></g></g></g></svg>